<svg width="16" height="106" viewBox="0 0 16 106" fill="none" xmlns="http://www.w3.org/2000/svg">
<g clip-path="url(#clip0)">
<path opacity="0.4" fill-rule="evenodd" clip-rule="evenodd" d="M8 -4.37114e-08C8.55228 -1.95703e-08 9 0.170739 9 0.381356L9 44.6186C9 44.8293 8.55228 45 8 45C7.44771 45 7 44.8293 7 44.6186L7 0.381356C7 0.170739 7.44772 -6.78525e-08 8 -4.37114e-08Z" fill="#516573"/>
<path fill-rule="evenodd" clip-rule="evenodd" d="M12.4715 50.5288C12.2111 50.2684 11.789 50.2684 11.5287 50.5288L8.00008 54.0574L4.47149 50.5288C4.21114 50.2684 3.78903 50.2684 3.52868 50.5288C3.26833 50.7891 3.26833 51.2112 3.52868 51.4716L7.52868 55.4716C7.78903 55.7319 8.21114 55.7319 8.47149 55.4716L12.4715 51.4716C12.7318 51.2112 12.7318 50.7891 12.4715 50.5288Z" fill="#516573"/>
<path opacity="0.4" fill-rule="evenodd" clip-rule="evenodd" d="M7.99999 61C8.21061 61 8.38135 61.1707 8.38135 61.3814L8.38135 105.619C8.38135 105.829 8.21061 106 7.99999 106C7.78937 106 7.61863 105.829 7.61863 105.619L7.61864 61.3814C7.61864 61.1707 7.78937 61 7.99999 61Z" fill="#516573"/>
</g>
<defs>
<clipPath id="clip0">
<rect width="106" height="16" fill="white" transform="translate(16) rotate(90)"/>
</clipPath>
</defs>
</svg>
