<svg viewBox="0 0 24 24" fill="none" xmlns="http://www.w3.org/2000/svg">
    <path d="M16.37 12.99C16.2479 12.9414 16.1174 12.9173 15.9859 12.9192C15.8545 12.921 15.7247 12.9488 15.604 13.0008C15.4833 13.0528 15.374 13.128 15.2824 13.2223C15.1908 13.3165 15.1186 13.4279 15.07 13.55C15.0214 13.6721 14.9974 13.8026 14.9992 13.9341C15.001 14.0655 15.0288 14.1953 15.0808 14.316C15.1328 14.4367 15.208 14.546 15.3023 14.6376C15.3965 14.7292 15.5079 14.8014 15.63 14.85C17.09 15.43 18 16.33 18 17.2C18 18.62 15.54 20.2 12 20.2C8.46 20.2 6 18.62 6 17.2C6 16.33 6.91 15.43 8.37 14.85C8.61665 14.7519 8.81422 14.5598 8.91924 14.316C9.02426 14.0722 9.02813 13.7966 8.93 13.55C8.83187 13.3033 8.63978 13.1058 8.39598 13.0008C8.15218 12.8957 7.87665 12.8919 7.63 12.99C5.36 13.89 4 15.46 4 17.2C4 20 7.51 22.2 12 22.2C16.49 22.2 20 20 20 17.2C20 15.46 18.64 13.89 16.37 12.99ZM11 10.06V17.2C11 17.4652 11.1054 17.7196 11.2929 17.9071C11.4804 18.0946 11.7348 18.2 12 18.2C12.2652 18.2 12.5196 18.0946 12.7071 17.9071C12.8946 17.7196 13 17.4652 13 17.2V10.06C13.9427 9.8166 14.7642 9.23777 15.3106 8.43199C15.857 7.62621 16.0908 6.64881 15.9681 5.68299C15.8454 4.71718 15.3747 3.82926 14.6442 3.18567C13.9137 2.54208 12.9736 2.18701 12 2.18701C11.0264 2.18701 10.0863 2.54208 9.35577 3.18567C8.62526 3.82926 8.15456 4.71718 8.03188 5.68299C7.90921 6.64881 8.14299 7.62621 8.6894 8.43199C9.23581 9.23777 10.0573 9.8166 11 10.06ZM12 4.2C12.3956 4.2 12.7822 4.31729 13.1111 4.53706C13.44 4.75682 13.6964 5.06918 13.8478 5.43463C13.9991 5.80008 14.0387 6.20221 13.9616 6.59018C13.8844 6.97814 13.6939 7.3345 13.4142 7.61421C13.1345 7.89391 12.7781 8.0844 12.3902 8.16157C12.0022 8.23874 11.6001 8.19913 11.2346 8.04775C10.8692 7.89638 10.5568 7.64003 10.3371 7.31114C10.1173 6.98224 10 6.59556 10 6.2C10 5.66956 10.2107 5.16085 10.5858 4.78578C10.9609 4.41071 11.4696 4.2 12 4.2Z" />
</svg>
