<svg width="71" height="61" viewBox="0 0 71 61" fill="none" xmlns="http://www.w3.org/2000/svg">
<path fill-rule="evenodd" clip-rule="evenodd" d="M70.6886 10.2611C60.1011 15.4672 54.8074 21.5842 54.8074 28.6125C59.3201 29.1331 63.0517 30.9769 66.0024 34.1439C68.953 37.311 70.4283 40.9769 70.4283 45.1418C70.4283 49.5669 68.9964 53.2979 66.1325 56.3348C63.2687 59.3717 59.6672 60.8901 55.3281 60.8901C50.4682 60.8901 46.2593 58.9162 42.7011 54.9682C39.143 51.0203 37.364 46.2264 37.364 40.5864C37.364 23.6666 46.8232 10.4347 65.742 0.890137L70.6886 10.2611ZM33.3246 10.2611C22.6503 15.4672 17.3132 21.5842 17.3132 28.6125C21.9127 29.1331 25.6877 30.9769 28.6384 34.1439C31.589 37.311 33.0643 40.9769 33.0643 45.1418C33.0643 49.5669 31.6107 53.2979 28.7034 56.3348C25.7962 59.3717 22.1731 60.8901 17.8339 60.8901C12.974 60.8901 8.78679 58.9162 5.27206 54.9682C1.75734 51.0203 0 46.2264 0 40.5864C0 23.6666 9.41585 10.4347 28.2478 0.890137L33.3246 10.2611Z"/>
</svg>
