<svg width="381" height="380" viewBox="0 0 381 380" fill="none" xmlns="http://www.w3.org/2000/svg">
<g opacity="0.3">
<path d="M30.788 293.754C37.8585 304.58 46.1471 314.844 55.6536 324.35C65.1602 333.857 75.4234 342.145 86.2496 349.216L30.788 293.754Z" fill="url(#paint0_linear)"/>
<path d="M107.614 361.264L18.7392 272.39C16.0513 266.802 13.6525 261.111 11.543 255.338L124.666 368.461C118.893 366.351 113.201 363.952 107.614 361.264Z" fill="url(#paint1_linear)"/>
<path d="M138.42 372.899C142.73 374.11 147.075 375.166 151.445 376.068L3.93593 228.559C4.83733 232.929 5.89371 237.274 7.10507 241.584L138.42 372.899Z" fill="url(#paint2_linear)"/>
<path d="M1.95902 217.266L162.737 378.045C166.436 378.578 170.147 379.002 173.866 379.317L0.686324 206.138C1.00143 209.857 1.42566 213.568 1.95902 217.266Z" fill="url(#paint3_linear)"/>
<path d="M0.10583 196.242L183.762 379.898C187.068 380.006 190.377 380.028 193.684 379.964L0.0393283 186.32C-0.0243438 189.627 -0.00217661 192.935 0.10583 196.242Z" fill="url(#paint4_linear)"/>
<path d="M0.420549 177.385L202.619 379.583C205.637 379.383 208.652 379.112 211.66 378.769L1.23469 168.344C0.891566 171.352 0.620183 174.366 0.420549 177.385Z" fill="url(#paint5_linear)"/>
<path d="M2.35062 160.144L219.86 377.653C222.65 377.211 225.432 376.708 228.204 376.141L3.86222 151.8C3.29604 154.572 2.79217 157.354 2.35062 160.144Z" fill="url(#paint6_linear)"/>
<path d="M5.57754 144.199L235.804 374.426C238.403 373.783 240.991 373.085 243.565 372.331L7.67238 136.438C6.91851 139.013 6.22024 141.601 5.57754 144.199Z" fill="url(#paint7_linear)"/>
<path d="M9.89961 129.35L250.654 370.104C253.086 369.287 255.504 368.42 257.908 367.502L12.5017 122.096C11.5838 124.5 10.7164 126.918 9.89961 129.35Z" fill="url(#paint8_linear)"/>
<path d="M15.1812 115.46L264.544 364.822C266.826 363.85 269.093 362.831 271.343 361.766L18.2377 108.661C17.1722 110.911 16.1534 113.178 15.1812 115.46Z" fill="url(#paint9_linear)"/>
<path d="M21.3275 102.435L277.569 358.676C279.714 357.562 281.842 356.404 283.951 355.203L24.8008 96.0523C23.5994 98.1621 22.4416 100.29 21.3275 102.435Z" fill="url(#paint10_linear)"/>
<path d="M28.2707 90.2065L289.797 351.733C291.813 350.487 293.811 349.199 295.79 347.87L32.1336 84.2138C30.8047 86.1923 29.5171 88.1903 28.2707 90.2065Z" fill="url(#paint11_linear)"/>
<path d="M35.9618 78.7262L301.277 344.042C303.172 342.67 305.046 341.259 306.9 339.809L40.195 73.1037C38.7447 74.9575 37.3336 76.8321 35.9618 78.7262Z" fill="url(#paint12_linear)"/>
<path d="M44.366 67.959L312.045 335.638C313.821 334.145 315.577 332.616 317.311 331.048L48.9555 62.6928C47.388 64.4266 45.8582 66.1824 44.366 67.959Z" fill="url(#paint13_linear)"/>
<path d="M53.4586 57.8802L322.124 326.545C322.872 325.821 323.615 325.089 324.354 324.35C325.261 323.443 326.157 322.529 327.042 321.608L58.3955 52.9613C57.4748 53.8463 56.5607 54.7423 55.6536 55.6495C54.9146 56.3885 54.1829 57.1321 53.4586 57.8802Z" fill="url(#paint14_linear)"/>
<path d="M63.2253 48.4755L331.528 316.778C333.09 315.038 334.613 313.276 336.099 311.494L68.5099 43.9043C66.7272 45.3903 64.9653 46.914 63.2253 48.4755Z" fill="url(#paint15_linear)"/>
<path d="M73.6723 39.751L340.253 306.331C341.697 304.471 343.101 302.59 344.467 300.69L79.3138 35.5369C77.4134 36.9022 75.5325 38.3069 73.6723 39.751Z" fill="url(#paint16_linear)"/>
<path d="M84.8197 31.727L348.277 295.184C349.599 293.199 350.88 291.194 352.12 289.171L90.8324 27.8838C88.8096 29.1235 86.8049 30.4046 84.8197 31.727Z" fill="url(#paint17_linear)"/>
<path d="M96.6975 24.4332L355.57 283.306C356.765 281.189 357.916 279.054 359.023 276.903L103.101 20.981C100.949 22.088 98.8145 23.2387 96.6975 24.4332Z" fill="url(#paint18_linear)"/>
<path d="M109.348 17.9119L362.092 270.656C363.15 268.398 364.161 266.124 365.125 263.834L116.17 14.8782C113.88 15.8426 111.606 16.8538 109.348 17.9119Z" fill="url(#paint19_linear)"/>
<path d="M122.828 12.2212L367.782 257.175C368.692 254.763 369.551 252.336 370.359 249.897L130.107 9.64427C127.667 10.4525 125.24 11.3114 122.828 12.2212Z" fill="url(#paint20_linear)"/>
<path d="M137.221 7.44219L372.561 242.783C373.306 240.199 373.995 237.601 374.628 234.993L145.01 5.37572C142.402 6.00866 139.805 6.69749 137.221 7.44219Z" fill="url(#paint21_linear)"/>
<path d="M152.639 3.68932L376.314 227.364C376.87 224.581 377.363 221.788 377.793 218.987L161.017 2.21101C158.216 2.64105 155.423 3.13383 152.639 3.68932Z" fill="url(#paint22_linear)"/>
<path d="M169.251 1.12966L378.874 210.752C379.204 207.73 379.462 204.702 379.647 201.67L178.334 0.356292C175.302 0.541727 172.273 0.799531 169.251 1.12966Z" fill="url(#paint23_linear)"/>
<path d="M187.312 0.0187072L379.985 192.692C380.032 189.367 379.992 186.04 379.865 182.716L197.287 0.138542C193.963 0.0118342 190.637 -0.0281196 187.312 0.0187072Z" fill="url(#paint24_linear)"/>
<path d="M207.243 0.778678L379.225 172.761C378.886 169.015 378.436 165.278 377.875 161.555L218.449 2.12853C214.725 1.5678 210.988 1.11786 207.243 0.778678Z" fill="url(#paint25_linear)"/>
<path d="M229.834 4.19851L375.805 150.169C374.863 145.753 373.762 141.363 372.502 137.01L242.994 7.50179C238.64 6.24204 234.251 5.14095 229.834 4.19851Z" fill="url(#paint26_linear)"/>
<path d="M256.938 12.1302L367.873 123.066C365.656 117.163 363.135 111.349 360.31 105.647L274.357 19.6934C268.655 16.8684 262.84 14.3473 256.938 12.1302Z" fill="url(#paint27_linear)"/>
<path d="M296.774 32.7946L347.209 83.2301C340.592 73.5108 332.974 64.2691 324.354 55.6495C315.735 47.0299 306.493 39.4116 296.774 32.7946Z" fill="url(#paint28_linear)"/>
</g>
<defs>
<linearGradient id="paint0_linear" x1="56.8988" y1="55.097" x2="327.368" y2="325.566" gradientUnits="userSpaceOnUse">
<stop stop-color="white"/>
<stop offset="1" stop-color="white" stop-opacity="0"/>
</linearGradient>
<linearGradient id="paint1_linear" x1="56.8988" y1="55.097" x2="327.368" y2="325.566" gradientUnits="userSpaceOnUse">
<stop stop-color="white"/>
<stop offset="1" stop-color="white" stop-opacity="0"/>
</linearGradient>
<linearGradient id="paint2_linear" x1="56.8988" y1="55.097" x2="327.368" y2="325.566" gradientUnits="userSpaceOnUse">
<stop stop-color="white"/>
<stop offset="1" stop-color="white" stop-opacity="0"/>
</linearGradient>
<linearGradient id="paint3_linear" x1="56.8988" y1="55.097" x2="327.368" y2="325.566" gradientUnits="userSpaceOnUse">
<stop stop-color="white"/>
<stop offset="1" stop-color="white" stop-opacity="0"/>
</linearGradient>
<linearGradient id="paint4_linear" x1="56.8988" y1="55.097" x2="327.368" y2="325.566" gradientUnits="userSpaceOnUse">
<stop stop-color="white"/>
<stop offset="1" stop-color="white" stop-opacity="0"/>
</linearGradient>
<linearGradient id="paint5_linear" x1="56.8988" y1="55.097" x2="327.368" y2="325.566" gradientUnits="userSpaceOnUse">
<stop stop-color="white"/>
<stop offset="1" stop-color="white" stop-opacity="0"/>
</linearGradient>
<linearGradient id="paint6_linear" x1="56.8988" y1="55.097" x2="327.368" y2="325.566" gradientUnits="userSpaceOnUse">
<stop stop-color="white"/>
<stop offset="1" stop-color="white" stop-opacity="0"/>
</linearGradient>
<linearGradient id="paint7_linear" x1="56.8988" y1="55.097" x2="327.368" y2="325.566" gradientUnits="userSpaceOnUse">
<stop stop-color="white"/>
<stop offset="1" stop-color="white" stop-opacity="0"/>
</linearGradient>
<linearGradient id="paint8_linear" x1="56.8988" y1="55.097" x2="327.368" y2="325.566" gradientUnits="userSpaceOnUse">
<stop stop-color="white"/>
<stop offset="1" stop-color="white" stop-opacity="0"/>
</linearGradient>
<linearGradient id="paint9_linear" x1="56.8988" y1="55.097" x2="327.368" y2="325.566" gradientUnits="userSpaceOnUse">
<stop stop-color="white"/>
<stop offset="1" stop-color="white" stop-opacity="0"/>
</linearGradient>
<linearGradient id="paint10_linear" x1="56.8988" y1="55.097" x2="327.368" y2="325.566" gradientUnits="userSpaceOnUse">
<stop stop-color="white"/>
<stop offset="1" stop-color="white" stop-opacity="0"/>
</linearGradient>
<linearGradient id="paint11_linear" x1="56.8988" y1="55.097" x2="327.368" y2="325.566" gradientUnits="userSpaceOnUse">
<stop stop-color="white"/>
<stop offset="1" stop-color="white" stop-opacity="0"/>
</linearGradient>
<linearGradient id="paint12_linear" x1="56.8988" y1="55.097" x2="327.368" y2="325.566" gradientUnits="userSpaceOnUse">
<stop stop-color="white"/>
<stop offset="1" stop-color="white" stop-opacity="0"/>
</linearGradient>
<linearGradient id="paint13_linear" x1="56.8988" y1="55.097" x2="327.368" y2="325.566" gradientUnits="userSpaceOnUse">
<stop stop-color="white"/>
<stop offset="1" stop-color="white" stop-opacity="0"/>
</linearGradient>
<linearGradient id="paint14_linear" x1="56.8988" y1="55.097" x2="327.368" y2="325.566" gradientUnits="userSpaceOnUse">
<stop stop-color="white"/>
<stop offset="1" stop-color="white" stop-opacity="0"/>
</linearGradient>
<linearGradient id="paint15_linear" x1="56.8988" y1="55.097" x2="327.368" y2="325.566" gradientUnits="userSpaceOnUse">
<stop stop-color="white"/>
<stop offset="1" stop-color="white" stop-opacity="0"/>
</linearGradient>
<linearGradient id="paint16_linear" x1="56.8988" y1="55.097" x2="327.368" y2="325.566" gradientUnits="userSpaceOnUse">
<stop stop-color="white"/>
<stop offset="1" stop-color="white" stop-opacity="0"/>
</linearGradient>
<linearGradient id="paint17_linear" x1="56.8988" y1="55.097" x2="327.368" y2="325.566" gradientUnits="userSpaceOnUse">
<stop stop-color="white"/>
<stop offset="1" stop-color="white" stop-opacity="0"/>
</linearGradient>
<linearGradient id="paint18_linear" x1="56.8988" y1="55.097" x2="327.368" y2="325.566" gradientUnits="userSpaceOnUse">
<stop stop-color="white"/>
<stop offset="1" stop-color="white" stop-opacity="0"/>
</linearGradient>
<linearGradient id="paint19_linear" x1="56.8988" y1="55.097" x2="327.368" y2="325.566" gradientUnits="userSpaceOnUse">
<stop stop-color="white"/>
<stop offset="1" stop-color="white" stop-opacity="0"/>
</linearGradient>
<linearGradient id="paint20_linear" x1="56.8988" y1="55.097" x2="327.368" y2="325.566" gradientUnits="userSpaceOnUse">
<stop stop-color="white"/>
<stop offset="1" stop-color="white" stop-opacity="0"/>
</linearGradient>
<linearGradient id="paint21_linear" x1="56.8988" y1="55.097" x2="327.368" y2="325.566" gradientUnits="userSpaceOnUse">
<stop stop-color="white"/>
<stop offset="1" stop-color="white" stop-opacity="0"/>
</linearGradient>
<linearGradient id="paint22_linear" x1="56.8988" y1="55.097" x2="327.368" y2="325.566" gradientUnits="userSpaceOnUse">
<stop stop-color="white"/>
<stop offset="1" stop-color="white" stop-opacity="0"/>
</linearGradient>
<linearGradient id="paint23_linear" x1="56.8988" y1="55.097" x2="327.368" y2="325.566" gradientUnits="userSpaceOnUse">
<stop stop-color="white"/>
<stop offset="1" stop-color="white" stop-opacity="0"/>
</linearGradient>
<linearGradient id="paint24_linear" x1="56.8988" y1="55.097" x2="327.368" y2="325.566" gradientUnits="userSpaceOnUse">
<stop stop-color="white"/>
<stop offset="1" stop-color="white" stop-opacity="0"/>
</linearGradient>
<linearGradient id="paint25_linear" x1="56.8988" y1="55.097" x2="327.368" y2="325.566" gradientUnits="userSpaceOnUse">
<stop stop-color="white"/>
<stop offset="1" stop-color="white" stop-opacity="0"/>
</linearGradient>
<linearGradient id="paint26_linear" x1="56.8988" y1="55.097" x2="327.368" y2="325.566" gradientUnits="userSpaceOnUse">
<stop stop-color="white"/>
<stop offset="1" stop-color="white" stop-opacity="0"/>
</linearGradient>
<linearGradient id="paint27_linear" x1="56.8988" y1="55.097" x2="327.368" y2="325.566" gradientUnits="userSpaceOnUse">
<stop stop-color="white"/>
<stop offset="1" stop-color="white" stop-opacity="0"/>
</linearGradient>
<linearGradient id="paint28_linear" x1="56.8988" y1="55.097" x2="327.368" y2="325.566" gradientUnits="userSpaceOnUse">
<stop stop-color="white"/>
<stop offset="1" stop-color="white" stop-opacity="0"/>
</linearGradient>
</defs>
</svg>
