<svg xmlns="http://www.w3.org/2000/svg" fill="none" viewBox="0 0 24 24"><defs/><path d="M8.782 16.763c-.2.867-.123 2.083-.035 2.876 0 0 .207.082.341.13.134.046.345.112.345.112.407-.666 1.018-1.757 1.245-2.628l.624-2.382c.327.623 1.282 1.152 2.298 1.152 3.022 0 5.2-2.78 5.2-6.234C18.8 6.478 16.098 4 12.621 4 8.297 4 6 6.904 6 10.066c0 1.469.782 3.3 2.033 3.883.19.087.292.048.336-.136.033-.138.203-.82.278-1.135a.302.302 0 00-.07-.288c-.414-.502-.745-1.426-.745-2.288 0-2.21 1.674-4.349 4.525-4.349 2.463 0 4.187 1.677 4.187 4.077 0 2.711-1.37 4.59-3.151 4.59-.984 0-1.72-.813-1.485-1.811.284-1.192.83-2.477.83-3.337 0-.77-.413-1.412-1.267-1.412-1.007 0-1.813 1.04-1.813 2.434 0 .888.3 1.488.3 1.488s-.994 4.2-1.176 4.98z"/></svg>