<svg width="108" height="30" viewBox="0 0 108 30" fill="none" xmlns="http://www.w3.org/2000/svg">
<path d="M44.636 12.3335V19.7347H47.3269V21.1338H43V12.3347L44.636 12.3335Z" fill="white"/>
<path d="M50.9014 14.0356C51.9409 14.0356 52.6558 14.5643 53.0396 15.145V14.1492H54.6844V21.1269H53.0396V20.1063C52.6547 20.7106 51.9179 21.2405 50.8893 21.2405C49.2533 21.2405 47.9441 19.7905 47.9441 17.6097C47.9441 15.4288 49.2533 14.0356 50.9014 14.0356ZM51.3214 15.5861C50.4442 15.5861 49.6152 16.2957 49.6152 17.6156C49.6152 18.9355 50.4453 19.6959 51.3214 19.6959C52.2216 19.6959 53.0396 18.9638 53.0396 17.6404C53.0396 16.317 52.2216 15.5861 51.3214 15.5861Z" fill="white"/>
<path d="M60.8239 17.2748C60.8239 16.1525 60.2515 15.5481 59.3864 15.5481C58.4982 15.5481 57.9258 16.1525 57.9258 17.2748V21.1327H56.2898V14.1549H57.9258V15.0242C58.3469 14.4329 59.0475 14.0532 59.8776 14.0532C61.3853 14.0532 62.461 15.1176 62.461 17.0418V21.1386H60.8239V17.2748Z" fill="white"/>
<path d="M66.5629 14.0348C67.4171 14.0348 68.2351 14.4629 68.6792 15.1181V11.8066H70.3382V21.1356H68.6792V20.1019C68.2932 20.7441 67.5684 21.2491 66.5519 21.2491C64.9071 21.2491 63.5913 19.7991 63.5913 17.6183C63.5913 15.4374 64.9038 14.0348 66.5629 14.0348ZM66.9719 15.5853C66.0947 15.5853 65.2657 16.2949 65.2657 17.6147C65.2657 18.9346 66.0958 19.6951 66.9719 19.6951C67.8721 19.6951 68.6901 18.963 68.6901 17.6396C68.6901 16.3162 67.8721 15.5853 66.9719 15.5853Z" fill="white"/>
<path d="M72.1968 15.5952H71.4292V14.1488H72.1968V12.4209H73.8416V14.1488H75.2912V15.5952H73.8449V18.9741C73.8449 19.4401 74.0203 19.6423 74.5346 19.6423H75.2945V21.1301H74.2659C73.0268 21.1301 72.1968 20.5624 72.1968 18.9611V15.5952Z" fill="white"/>
<path d="M79.0161 14.0356C80.0567 14.0356 80.7706 14.5643 81.1544 15.145V14.1492H82.7991V21.1269H81.1544V20.1063C80.7695 20.7106 80.0326 21.2405 79.0041 21.2405C77.3681 21.2405 76.0588 19.7905 76.0588 17.6097C76.0588 15.4288 77.3637 14.0356 79.0161 14.0356ZM79.4361 15.5861C78.5589 15.5861 77.7299 16.2957 77.7299 17.6156C77.7299 18.9355 78.56 19.6959 79.4361 19.6959C80.3364 19.6959 81.1544 18.9638 81.1544 17.6404C81.1544 16.317 80.332 15.5861 79.4317 15.5861H79.4361Z" fill="white"/>
<path d="M93.4585 17.275C93.4585 16.1656 92.885 15.5861 92.021 15.5861C91.1569 15.5861 90.5714 16.1656 90.5714 17.275V21.1328H88.9354V17.275C88.9354 16.1656 88.3619 15.5861 87.4978 15.5861C86.6085 15.5861 86.0362 16.1656 86.0362 17.275V21.1328H84.4001V14.1551H86.034V14.9995C86.443 14.4188 87.1305 14.0534 87.9397 14.0534C88.9441 14.0534 89.7742 14.5264 90.2183 15.3898C90.4489 14.978 90.7751 14.6381 91.1647 14.4037C91.5543 14.1694 91.9938 14.0486 92.4398 14.0534C93.9936 14.0534 95.0923 15.1178 95.0923 17.042V21.1387H93.4585V17.275Z" fill="white"/>
<path d="M96.4741 12.2839C96.4741 11.7044 96.8952 11.2502 97.4796 11.2502C97.6093 11.2435 97.739 11.2653 97.8606 11.3142C97.9823 11.3631 98.0935 11.4382 98.1875 11.5348C98.2815 11.6315 98.3563 11.7477 98.4074 11.8764C98.4586 12.0052 98.4849 12.1438 98.4849 12.2839C98.4849 12.4239 98.4586 12.5625 98.4074 12.6913C98.3563 12.82 98.2815 12.9362 98.1875 13.0329C98.0935 13.1295 97.9823 13.2046 97.8606 13.2535C97.739 13.3024 97.6093 13.3242 97.4796 13.3175C96.8952 13.3163 96.4741 12.8622 96.4741 12.2839ZM96.6496 14.1501H98.2856V21.1279H96.6496V14.1501Z" fill="white"/>
<path d="M102.681 14.0356C104.293 14.0356 105.381 14.9428 105.731 16.5062H103.966C103.779 15.9149 103.347 15.5353 102.669 15.5353C101.757 15.5353 101.149 16.2792 101.149 17.6404C101.149 19.0017 101.757 19.7338 102.669 19.7338C103.347 19.7338 103.766 19.4062 103.966 18.7758H105.731C105.381 20.2624 104.293 21.2464 102.681 21.2464C100.811 21.2464 99.4783 19.8343 99.4783 17.6404C99.4783 15.4466 100.811 14.0356 102.681 14.0356Z" fill="white"/>
<path d="M9.98565 5.61084V14.3593L1.02417 9.81041L9.98565 5.61084Z" fill="#8C30F5"/>
<path d="M16.1092 17.4657V28.9998L1 21.1878L1.02423 9.81006L9.98571 14.3589L16.1092 17.4657Z" fill="#F22BB2"/>
<path d="M20.0142 24.389V15.6406L28.9745 20.1895L20.0142 24.389Z" fill="#FE9A22"/>
<path d="M13.8909 12.5341V1L29.0001 8.81206L28.9747 20.1898L20.0144 15.6409L13.8909 12.5341Z" fill="#2EC5CE"/>
</svg>
