<?xml version="1.0" standalone="no"?>
<!DOCTYPE svg PUBLIC "-//W3C//DTD SVG 20010904//EN"
 "http://www.w3.org/TR/2001/REC-SVG-20010904/DTD/svg10.dtd">
<svg version="1.0" xmlns="http://www.w3.org/2000/svg"
 width="201.000000pt" height="201.000000pt" viewBox="0 0 201.000000 201.000000"
 preserveAspectRatio="xMidYMid meet">
<metadata>
Created by potrace 1.14, written by Peter Selinger 2001-2017
</metadata>
<g transform="translate(0.000000,201.000000) scale(0.100000,-0.100000)"
fill="#000000" stroke="none">
<path d="M923 1593 l2 -408 115 -59 c63 -32 160 -82 215 -110 l100 -51 2 -309
c1 -169 3 -309 5 -311 2 -1 28 9 58 23 30 14 107 50 170 80 63 30 143 67 177
83 34 15 100 46 146 69 l85 41 -1 406 -2 407 -55 29 c-30 16 -152 78 -270 139
-118 61 -251 130 -295 153 -201 106 -435 225 -444 225 -7 0 -9 -142 -8 -407z"/>
<path d="M580 1652 c-30 -14 -107 -50 -170 -80 -63 -30 -146 -69 -185 -87 -38
-18 -105 -49 -147 -69 l-76 -36 1 -408 2 -407 60 -30 c33 -17 141 -73 240
-124 99 -52 236 -123 305 -159 69 -35 202 -104 297 -153 l172 -89 0 412 -1
413 -190 95 c-104 52 -202 103 -218 112 l-29 17 0 306 c0 169 -1 308 -3 310
-2 1 -28 -9 -58 -23z"/>
</g>
</svg>
